<?xml version="1.0" encoding="utf-8"?>
<!-- Generator: Adobe Illustrator 16.0.3, SVG Export Plug-In . SVG Version: 6.00 Build 0)  -->
<!DOCTYPE svg PUBLIC "-//W3C//DTD SVG 1.1//EN" "http://www.w3.org/Graphics/SVG/1.1/DTD/svg11.dtd">
<svg version="1.1" id="Layer_1" xmlns="http://www.w3.org/2000/svg" xmlns:xlink="http://www.w3.org/1999/xlink" x="0px" y="0px"
	 width="27.625px" height="50px" viewBox="0 0 27.625 50" enable-background="new 0 0 27.625 50" xml:space="preserve">
<path fill="#FFFFFF" stroke="#D32F2F" stroke-width="2" stroke-miterlimit="10" d="M3.398,3.688C2.73,6.188,2.452,10.5,2.812,18.812
	c0.191,4.408,2.243,11.37,2.5,15.875c0.25,4.375-0.298,11.616-0.062,12c1.062,1.729,16.348,1.574,17,0.188
	c1.037-2.206-0.125-11.125,0.312-13.75c0.81-4.859,1.66-7.619,2.188-14.438c0.55-7.12-0.058-12.125,0-15.062
	C24.779,2.125,3.91,1.772,3.398,3.688z"/>
<path fill="#D32F2F" d="M5.188,10.125c0,0-0.583,6.229,0.25,10.562s1.618,9.433,1.875,13.938c0.25,4.375-0.428,10.167-0.125,10.5
	s9.25,1.661,13.125,0.062c0,0-0.312-10.688,0.125-13.312c0.81-4.859,1.336-4.807,1.863-11.625c0.55-7.12-0.051-10.125-0.051-10.125
	H5.188z"/>
</svg>
