<?xml version="1.0" encoding="utf-8"?>
<!-- Generator: Adobe Illustrator 16.0.3, SVG Export Plug-In . SVG Version: 6.00 Build 0)  -->
<!DOCTYPE svg PUBLIC "-//W3C//DTD SVG 1.1//EN" "http://www.w3.org/Graphics/SVG/1.1/DTD/svg11.dtd">
<svg version="1.1" id="Layer_1" xmlns="http://www.w3.org/2000/svg" xmlns:xlink="http://www.w3.org/1999/xlink" x="0px" y="0px"
	 width="25.997px" height="21.804px" viewBox="0 0 25.997 21.804" enable-background="new 0 0 25.997 21.804" xml:space="preserve">
<path fill="#FFFFFF" d="M16.126,0.609c-0.585-0.438-1.068-0.468-1.2-0.424s0,0.321-0.073,0.424s-0.277,0.073-0.321,0.161
	s0,0.22-0.146,0.38c-0.146,0.161-4.682,4.931-5.193,5.574c-0.424,0.351-2.12,1.126-2.311,1.345c-0.19,0.22-6.525,9.327-6.729,9.626
	c-0.481,0.703,0.246,2.202,1.521,3.117c1.339,0.963,3.099,1.382,3.735,0.638c0.235-0.274,6.62-9.349,6.762-9.603
	c0.141-0.253,0.293-2.112,0.479-2.631c0.432-0.7,3.372-6.587,3.474-6.779s0.24-0.196,0.308-0.267
	c0.068-0.071-0.029-0.255,0.042-0.357c0.072-0.104,0.384-0.151,0.372-0.289C16.806,1.107,16.126,0.609,16.126,0.609z"/>
<path fill="#FFFFFF" d="M11.495,1.175c-0.147-0.16-0.104-0.293-0.149-0.381c-0.044-0.087-0.249-0.057-0.323-0.158
	c-0.073-0.103-0.015-0.413-0.148-0.448C10.468,0.082,9.77,0.559,9.77,0.559C9.158,0.964,8.969,1.41,8.966,1.55
	C8.963,1.688,9.27,1.657,9.343,1.761c0.071,0.104-0.024,0.287,0.044,0.358s0.207,0.073,0.311,0.266
	c0.038,0.072,0.479,0.938,1.039,2.033c0.632-0.676,1.321-1.408,1.914-2.035C12.01,1.713,11.541,1.225,11.495,1.175z"/>
<path fill="#FFFFFF" d="M25.87,17.68c-0.18-0.314-6.615-9.393-6.807-9.611c-0.192-0.22-1.898-0.986-2.326-1.336
	c-0.168-0.208-0.764-0.851-1.496-1.627c-0.854,1.689-1.663,3.278-2.054,3.998c0.012,0.021,0.024,0.043,0.034,0.059
	c0.189,0.519,0.353,2.383,0.497,2.636c0.144,0.254,6.626,9.295,6.838,9.589c0.504,0.692,2.165,0.506,3.457-0.391
	C25.373,20.054,26.359,18.531,25.87,17.68z"/>
</svg>
